<svg width="62" height="62" viewBox="0 0 62 62" fill="none" xmlns="http://www.w3.org/2000/svg">
<g id="_x3C_Layer_x3E_">
<g id="Code_x2C__coding_x2C__mobile_x2C__development">
<g id="XMLID_1809_">
<g id="XMLID_1832_">
<g id="Group">
<g id="Group_2">
<path id="Vector" d="M33.9062 7.75H28.0938C27.559 7.75 27.125 7.316 27.125 6.78125C27.125 6.2465 27.559 5.8125 28.0938 5.8125H33.9062C34.441 5.8125 34.875 6.2465 34.875 6.78125C34.875 7.316 34.441 7.75 33.9062 7.75Z" fill="white"/>
</g>
</g>
</g>
<g id="XMLID_1831_">
<g id="Group_3">
<g id="Group_4">
<path id="Vector_2" d="M41.6562 60.0625H20.3438C17.6719 60.0625 15.5 57.8886 15.5 55.2188V22.2812C15.5 21.7465 15.934 21.3125 16.4688 21.3125C17.0035 21.3125 17.4375 21.7465 17.4375 22.2812V55.2188C17.4375 56.8211 18.7414 58.125 20.3438 58.125H41.6562C43.2586 58.125 44.5625 56.8211 44.5625 55.2188V22.2812C44.5625 21.7465 44.9965 21.3125 45.5312 21.3125C46.066 21.3125 46.5 21.7465 46.5 22.2812V55.2188C46.5 57.8886 44.3281 60.0625 41.6562 60.0625Z" fill="white"/>
</g>
</g>
</g>
<g id="XMLID_1830_">
<g id="Group_5">
<g id="Group_6">
<path id="Vector_3" d="M45.5312 29.0625C44.9965 29.0625 44.5625 28.6285 44.5625 28.0938V6.78125C44.5625 5.17894 43.2586 3.875 41.6562 3.875H20.3438C18.7414 3.875 17.4375 5.17894 17.4375 6.78125V28.0938C17.4375 28.6285 17.0035 29.0625 16.4688 29.0625C15.934 29.0625 15.5 28.6285 15.5 28.0938V6.78125C15.5 4.11137 17.6719 1.9375 20.3438 1.9375H41.6562C44.3281 1.9375 46.5 4.11137 46.5 6.78125V28.0938C46.5 28.6285 46.066 29.0625 45.5312 29.0625Z" fill="white"/>
</g>
</g>
</g>
<g id="XMLID_1816_">
<g id="XMLID_1824_">
<g id="Group_7">
<g id="Group_8">
<path id="Vector_4" d="M51.3438 11.7219C50.809 11.7219 50.375 11.3847 50.375 10.85V10.6562C50.375 10.1215 50.809 9.6875 51.3438 9.6875C51.8785 9.6875 52.3125 10.1215 52.3125 10.6562C52.3125 11.191 51.8785 11.7219 51.3438 11.7219Z" fill="white"/>
</g>
</g>
</g>
<g id="XMLID_1818_">
<g id="Group_9">
<g id="Group_10">
<path id="Vector_5" d="M51.3438 15.5969C50.809 15.5969 50.375 15.2597 50.375 14.725V14.5312C50.375 13.9965 50.809 13.5625 51.3438 13.5625C51.8785 13.5625 52.3125 13.9965 52.3125 14.5312C52.3125 15.066 51.8785 15.5969 51.3438 15.5969Z" fill="white"/>
</g>
</g>
</g>
<g id="XMLID_1817_">
<g id="Group_11">
<g id="Group_12">
<path id="Vector_6" d="M51.3438 19.4719C50.809 19.4719 50.375 19.1348 50.375 18.6V18.4062C50.375 17.8715 50.809 17.4375 51.3438 17.4375C51.8785 17.4375 52.3125 17.8715 52.3125 18.4062C52.3125 18.941 51.8785 19.4719 51.3438 19.4719Z" fill="white"/>
</g>
</g>
</g>
</g>
<g id="XMLID_1820_">
<g id="XMLID_1823_">
<g id="Group_13">
<g id="Group_14">
<path id="Vector_7" d="M10.6562 44.4657C10.1215 44.4657 9.6875 44.1285 9.6875 43.5938V43.4C9.6875 42.8653 10.1215 42.4313 10.6562 42.4313C11.191 42.4313 11.625 42.8653 11.625 43.4C11.625 43.9348 11.191 44.4657 10.6562 44.4657Z" fill="white"/>
</g>
</g>
</g>
<g id="XMLID_1822_">
<g id="Group_15">
<g id="Group_16">
<path id="Vector_8" d="M10.6562 48.3407C10.1215 48.3407 9.6875 48.0035 9.6875 47.4688V47.275C9.6875 46.7403 10.1215 46.3063 10.6562 46.3063C11.191 46.3063 11.625 46.7403 11.625 47.275C11.625 47.8098 11.191 48.3407 10.6562 48.3407Z" fill="white"/>
</g>
</g>
</g>
<g id="XMLID_1821_">
<g id="Group_17">
<g id="Group_18">
<path id="Vector_9" d="M10.6562 52.2157C10.1215 52.2157 9.6875 51.8785 9.6875 51.3438V51.15C9.6875 50.6153 10.1215 50.1813 10.6562 50.1813C11.191 50.1813 11.625 50.6153 11.625 51.15C11.625 51.6848 11.191 52.2157 10.6562 52.2157Z" fill="white"/>
</g>
</g>
</g>
</g>
<g id="XMLID_1815_">
<g id="Group_19">
<g id="Group_20">
<path id="Vector_10" d="M48.1294 52.3125C48.0616 52.3125 47.9919 52.3067 47.9241 52.2912C47.4009 52.1788 47.0696 51.6634 47.182 51.1403L47.8214 48.1759C47.8989 47.8117 48.1798 47.5269 48.5402 47.4397C49.4547 47.2188 50.3459 46.8468 51.1888 46.3334C51.5007 46.1396 51.9017 46.1454 52.2137 46.3431L54.1318 47.5695L55.3195 46.3721L54.0931 44.4695C53.8916 44.1576 53.8877 43.7565 54.0795 43.4407C54.5929 42.5979 54.9649 41.7066 55.1839 40.7921C55.2711 40.4318 55.5539 40.1527 55.9163 40.0714L58.125 39.5812V37.9208L55.9182 37.4306C55.5559 37.3492 55.273 37.0702 55.1858 36.7098C54.9669 35.7953 54.5929 34.9041 54.0814 34.0612C53.8877 33.7454 53.8916 33.3463 54.0931 33.0344L55.3214 31.1143L54.1357 29.9286L52.2156 31.1569C51.9037 31.3565 51.5046 31.3604 51.1907 31.1666C50.3459 30.6532 49.4547 30.2812 48.5421 30.0603C48.1798 29.9731 47.9008 29.6864 47.8233 29.3241L47.3467 27.125H46.5C45.9653 27.125 45.5312 26.691 45.5312 26.1562C45.5312 25.6215 45.9653 25.1875 46.5 25.1875H48.1275C48.5828 25.1875 48.9781 25.5072 49.073 25.9528L49.5903 28.3418C50.2994 28.5568 50.995 28.8474 51.6654 29.2098L53.7462 27.8787C54.1299 27.6346 54.6298 27.6888 54.9533 28.0104L57.2415 30.2967C57.5631 30.6183 57.6174 31.1201 57.3713 31.5038L56.0402 33.5846C56.4026 34.2569 56.6932 34.9525 56.9082 35.6636L59.3011 36.1944C59.7467 36.2932 60.0625 36.6885 60.0625 37.1419V40.3581C60.0625 40.8115 59.7467 41.2068 59.303 41.3036L56.9102 41.8345C56.6951 42.5456 56.4045 43.2411 56.0422 43.9115L57.3713 45.973C57.6193 46.3547 57.567 46.8584 57.2454 47.1801L54.9572 49.4857C54.6336 49.8092 54.1318 49.8635 53.7482 49.6194L51.6673 48.2883C50.995 48.6506 50.3014 48.9412 49.5923 49.1563L49.0749 51.5452C48.9761 52.0025 48.5731 52.3125 48.1294 52.3125Z" fill="white"/>
</g>
</g>
</g>
<g id="XMLID_1810_">
<g id="Group_21">
<g id="Group_22">
<path id="Vector_11" d="M49.1934 43.7449C48.8834 43.7449 48.5773 43.5938 48.3893 43.3167C48.0909 42.873 48.2091 42.2704 48.6548 41.9721C49.7301 41.2474 50.3733 40.0423 50.3733 38.75C50.3733 36.6129 48.6354 34.875 46.4983 34.875C46.2348 34.875 45.9733 34.9021 45.7233 34.9525C45.2041 35.0571 44.6868 34.7239 44.5783 34.1969C44.4717 33.6718 44.8088 33.1603 45.3339 33.0537C45.7136 32.9782 46.105 32.9375 46.4983 32.9375C49.7029 32.9375 52.3108 35.5454 52.3108 38.75C52.3108 40.6894 51.3479 42.4952 49.732 43.5802C49.5673 43.6906 49.3794 43.7449 49.1934 43.7449Z" fill="white"/>
</g>
</g>
</g>
<g id="XMLID_1293_">
<g id="Group_23">
<g id="Group_24">
<path id="Vector_12" d="M15.5 29.0625C12.2954 29.0625 9.6875 26.4547 9.6875 23.25C9.6875 21.3028 10.6562 19.4952 12.2799 18.4102C12.7197 18.1157 13.3242 18.2319 13.6226 18.6795C13.919 19.1232 13.7989 19.7257 13.3533 20.0222C12.2721 20.7468 11.625 21.9519 11.625 23.25C11.625 25.3871 13.3629 27.125 15.5 27.125C15.7596 27.125 16.0154 27.0998 16.2595 27.0495C16.7729 26.9429 17.2941 27.282 17.4007 27.809C17.5072 28.334 17.1662 28.8436 16.6412 28.9482C16.2711 29.0238 15.8914 29.0625 15.5 29.0625Z" fill="white"/>
</g>
</g>
</g>
<g id="XMLID_1811_">
<g id="Group_25">
<g id="Group_26">
<path id="Vector_13" d="M15.5 36.8125H13.8725C13.4172 36.8125 13.0219 36.4928 12.927 36.0472L12.4097 33.6583C11.7006 33.4432 11.005 33.1526 10.3346 32.7903L8.25375 34.1213C7.86819 34.3654 7.37025 34.3131 7.04669 33.9896L4.7585 31.7033C4.43688 31.3817 4.38262 30.8799 4.62869 30.4963L5.95975 28.4154C5.59744 27.7431 5.30681 27.0475 5.09175 26.3364L2.69894 25.8056C2.25331 25.7068 1.9375 25.3115 1.9375 24.8581V21.6419C1.9375 21.1885 2.25331 20.7933 2.697 20.6964L5.08981 20.1655C5.30488 19.4544 5.5955 18.7589 5.95781 18.0885L4.63063 16.0251C4.38263 15.6434 4.43494 15.1396 4.75656 14.818L7.04475 12.5124C7.36444 12.1869 7.86819 12.1326 8.25375 12.3787L10.3346 13.7098C11.0069 13.3474 11.7006 13.0568 12.4097 12.8418L12.927 10.4528C13.0394 9.92776 13.5644 9.59451 14.0779 9.71076C14.601 9.82314 14.9323 10.3385 14.8199 10.8616L14.1806 13.826C14.1031 14.1903 13.8221 14.4751 13.4618 14.5623C12.5472 14.7831 11.656 15.1551 10.8112 15.6686C10.4974 15.8623 10.0983 15.8565 9.78631 15.6589L7.86819 14.4324L6.67856 15.6298L7.905 17.5324C8.10844 17.8444 8.11231 18.2454 7.91856 18.5613C7.40512 19.4041 7.03312 20.2953 6.81419 21.2098C6.727 21.5702 6.44412 21.8492 6.08181 21.9306L3.875 22.4188V24.0793L6.08181 24.5694C6.44412 24.6508 6.727 24.9298 6.81419 25.2902C7.03312 26.2047 7.40706 27.0959 7.91856 27.9388C8.11231 28.2546 8.10844 28.6537 7.90694 28.9656L6.67856 30.8838L7.86431 32.0695L9.78438 30.8411C10.0963 30.6435 10.4974 30.6396 10.8093 30.8314C11.6541 31.3449 12.5453 31.7169 13.4579 31.9378C13.8202 32.0249 14.0992 32.3117 14.1767 32.674L14.6533 34.875H15.5C16.0347 34.875 16.4688 35.309 16.4688 35.8438C16.4688 36.3785 16.0347 36.8125 15.5 36.8125Z" fill="white"/>
</g>
</g>
</g>
<g id="XMLID_1813_">
<g id="XMLID_1890_">
<g id="Group_27">
<g id="Group_28">
<path id="Vector_14" d="M30.0315 35.8437C29.954 35.8437 29.8765 35.834 29.797 35.8147C29.2758 35.6848 28.962 35.1598 29.0918 34.6405L31.0293 26.8905C31.1571 26.3693 31.6745 26.0555 32.2034 26.1853C32.7246 26.3151 33.0385 26.8402 32.9086 27.3594L30.9711 35.1094C30.8626 35.5512 30.4674 35.8437 30.0315 35.8437Z" fill="white"/>
</g>
</g>
</g>
<g id="XMLID_1888_">
<g id="Group_29">
<g id="Group_30">
<path id="Vector_15" d="M35.8442 35.8437C35.5962 35.8437 35.3482 35.7488 35.1584 35.5608C34.7805 35.183 34.7805 34.5688 35.1584 34.191L38.3494 30.9999L35.1603 27.8108C34.7825 27.433 34.7825 26.8188 35.1603 26.441C35.5381 26.0632 36.1523 26.0632 36.5301 26.441L40.4051 30.316C40.7829 30.6938 40.7829 31.308 40.4051 31.6858L36.5301 35.5608C36.3402 35.7488 36.0922 35.8437 35.8442 35.8437Z" fill="white"/>
</g>
</g>
</g>
<g id="XMLID_1887_">
<g id="Group_31">
<g id="Group_32">
<path id="Vector_16" d="M26.1567 35.8437C25.9087 35.8437 25.6607 35.7488 25.4709 35.5608L21.5959 31.6858C21.218 31.308 21.218 30.6938 21.5959 30.316L25.4709 26.441C25.8487 26.0632 26.4629 26.0632 26.8407 26.441C27.2185 26.8188 27.2185 27.433 26.8407 27.8108L23.6515 30.9999L26.8407 34.1891C27.2185 34.5669 27.2185 35.1811 26.8407 35.5589C26.6527 35.7488 26.4047 35.8437 26.1567 35.8437Z" fill="white"/>
</g>
</g>
</g>
</g>
</g>
</g>
</g>
</svg>
