<svg width="62" height="62" viewBox="0 0 62 62" fill="none" xmlns="http://www.w3.org/2000/svg">
<g id="Capa_1" clip-path="url(#clip0_4_5134)">
<g id="Group">
<g id="Group_2">
<path id="Vector" d="M28.8223 44.9851C28.3206 44.9851 27.9141 45.3917 27.9141 45.8933C27.9141 46.3949 28.3206 46.8015 28.8223 46.8015H33.1816C33.6833 46.8015 34.0898 46.3949 34.0898 45.8933C34.0898 45.3917 33.6833 44.9851 33.1816 44.9851H28.8223Z" fill="black"/>
<path id="Vector_2" d="M10.9004 30.8831H16.9037C17.2704 31.8374 18.1942 32.5178 19.2761 32.5178C20.3579 32.5178 21.2818 31.8374 21.6484 30.8831H22.8483C23.35 30.8831 23.7566 30.4764 23.7566 29.9749C23.7566 29.4733 23.35 29.0667 22.8483 29.0667H21.6484C21.2818 28.1123 20.3579 27.4319 19.2761 27.4319C18.1942 27.4319 17.2704 28.1123 16.9037 29.0667H10.9004C10.3987 29.0667 9.99219 29.4733 9.99219 29.9749C9.99219 30.4764 10.3987 30.8831 10.9004 30.8831ZM19.2761 29.2483C19.6768 29.2483 20.0026 29.5742 20.0026 29.9749C20.0026 30.3756 19.6768 30.7014 19.2761 30.7014C18.8754 30.7014 18.5495 30.3756 18.5495 29.9749C18.5495 29.5742 18.8754 29.2483 19.2761 29.2483Z" fill="black"/>
<path id="Vector_3" d="M10.9004 25.676H12.06C12.4267 26.6304 13.3505 27.3108 14.4323 27.3108C15.5142 27.3108 16.438 26.6304 16.8047 25.676H22.8483C23.35 25.676 23.7566 25.2694 23.7566 24.7678C23.7566 24.2663 23.35 23.8596 22.8483 23.8596H16.8047C16.438 22.9053 15.5142 22.2249 14.4323 22.2249C13.3505 22.2249 12.4267 22.9053 12.06 23.8596H10.9004C10.3987 23.8596 9.99219 24.2663 9.99219 24.7678C9.99219 25.2694 10.3987 25.676 10.9004 25.676ZM14.4323 24.0413C14.833 24.0413 15.1589 24.3671 15.1589 24.7678C15.1589 25.1685 14.833 25.4944 14.4323 25.4944C14.0316 25.4944 13.7058 25.1685 13.7058 24.7678C13.7058 24.3671 14.0316 24.0413 14.4323 24.0413Z" fill="black"/>
<path id="Vector_4" d="M23.0293 17.3206C23.5309 17.3206 23.9375 16.9139 23.9375 16.4124C23.9375 15.9108 23.5309 15.5042 23.0293 15.5042C22.5277 15.5042 22.1211 15.9108 22.1211 16.4124C22.1211 16.9139 22.5277 17.3206 23.0293 17.3206Z" fill="black"/>
<path id="Vector_5" d="M20.5254 17.3206C21.027 17.3206 21.4336 16.9139 21.4336 16.4124C21.4336 15.9108 21.027 15.5042 20.5254 15.5042C20.0238 15.5042 19.6172 15.9108 19.6172 16.4124C19.6172 16.9139 20.0238 17.3206 20.5254 17.3206Z" fill="black"/>
<path id="Vector_6" d="M18.0215 17.3206C18.5231 17.3206 18.9297 16.9139 18.9297 16.4124C18.9297 15.9108 18.5231 15.5042 18.0215 15.5042C17.5199 15.5042 17.1133 15.9108 17.1133 16.4124C17.1133 16.9139 17.5199 17.3206 18.0215 17.3206Z" fill="black"/>
<path id="Vector_7" d="M59.2754 6.11318H58.9352L59.1889 5.85949C59.9488 5.09962 59.9488 3.86314 59.1889 3.10327L57.2008 1.11516C56.441 0.355414 55.2046 0.355414 54.4446 1.11516L49.4469 6.11306H2.72461C1.22232 6.11306 0 7.33526 0 8.83767V46.554C0 48.3903 1.49381 49.8841 3.33008 49.8841H24.8418V56.3087H20.4648C19.2964 56.3087 18.3457 57.2594 18.3457 58.4279V59.3353C18.3457 60.5038 19.2964 61.4545 20.4648 61.4545H41.5352C42.7036 61.4545 43.6543 60.5038 43.6543 59.3353V58.4279C43.6543 57.2594 42.7036 56.3087 41.5352 56.3087H37.1582V49.8841H46.8633C47.365 49.8841 47.7715 49.4775 47.7715 48.9759C47.7715 48.4743 47.365 48.0677 46.8633 48.0677H3.33008C2.49538 48.0677 1.81641 47.3887 1.81641 46.554V43.8657H60.1836V46.554C60.1836 47.3887 59.5046 48.0677 58.6699 48.0677H51.1016C50.5999 48.0677 50.1934 48.4743 50.1934 48.9759C50.1934 49.4775 50.5999 49.8841 51.1016 49.8841H58.6699C60.5062 49.8841 62 48.3903 62 46.554V8.83779C62 7.3355 60.7777 6.11318 59.2754 6.11318ZM41.5352 58.1252C41.7021 58.1252 41.8379 58.2611 41.8379 58.428V59.3355C41.8379 59.5023 41.7021 59.6382 41.5352 59.6382H20.4648C20.2979 59.6382 20.1621 59.5023 20.1621 59.3355V58.428C20.1621 58.2611 20.2979 58.1252 20.4648 58.1252H41.5352ZM26.6582 49.8843H35.3419V56.309H26.6582V49.8843ZM55.729 2.39972C55.7809 2.34801 55.8649 2.34813 55.9165 2.39972L57.9045 4.38771C57.9562 4.43942 57.9562 4.52358 57.9045 4.57517L56.0076 6.4721L53.8321 4.29665L55.729 2.39972ZM52.5477 5.58109L54.723 7.75654L54.0896 8.38998L51.9142 6.21453L52.5477 5.58109ZM50.6298 7.49898L52.8052 9.67443L42.058 20.4216L39.8826 18.2462L50.6298 7.49898ZM49.2852 15.8023C50.5204 15.8023 51.5254 16.8072 51.5254 18.0425C51.5254 19.2778 50.5204 20.2827 49.2852 20.2827C48.0499 20.2827 47.0449 19.2778 47.0449 18.0425C47.0449 18.0281 47.0469 18.0142 47.0471 17.9997L49.2428 15.8044C49.2569 15.8042 49.2709 15.8023 49.2852 15.8023ZM40.4809 21.4134L37.793 22.5112L38.8908 19.8233L40.4809 21.4134ZM60.1836 42.0496H1.81641V8.83779C1.81641 8.33707 2.22377 7.92959 2.72461 7.92959H47.6307L46.2458 9.31441H15.3789C14.8772 9.31441 14.4707 9.72105 14.4707 10.2226C14.4707 10.7242 14.8772 11.1308 15.3789 11.1308H44.4295L38.0236 17.5372C37.8425 17.7198 37.701 17.9329 37.6035 18.1715L35.5748 23.1382C35.3887 23.5944 35.4935 24.1143 35.8419 24.4625C36.0758 24.6963 36.3867 24.8203 36.7039 24.8203C36.8594 24.8203 37.0162 24.7906 37.1662 24.7294L42.1329 22.7008C42.3647 22.6061 42.572 22.4691 42.7512 22.2953L45.5141 19.5328C46.1092 21.0342 47.5745 22.0992 49.2853 22.0992C51.5221 22.0992 53.3419 20.2795 53.3419 18.0426C53.3419 16.332 52.2771 14.8669 50.7759 14.2716L53.917 11.1309H56.9824V38.8484H56.501L53.2097 33.1477C52.959 32.7132 52.4032 32.5644 51.9691 32.8153C51.5347 33.0661 51.3859 33.6216 51.6367 34.0559L54.4037 38.8484H41.7167L40.3559 36.4916L46.6994 25.5044L49.5174 30.3855C49.7683 30.8198 50.3238 30.9688 50.758 30.7179C51.1924 30.4671 51.3412 29.9116 51.0904 29.4773L48.084 24.2701C47.795 23.7695 47.2774 23.4706 46.6993 23.4706C46.1212 23.4706 45.6035 23.7695 45.3145 24.2701L39.307 34.6753L31.5989 21.3246C31.3099 20.824 30.7923 20.5252 30.2141 20.5252C29.6361 20.5252 29.1184 20.824 28.8294 21.3246L26.7816 24.8716V15.1365C26.7816 13.968 25.8309 13.0173 24.6624 13.0173H9.08203C7.9136 13.0173 6.96289 13.968 6.96289 15.1365V34.9959C6.96289 35.8306 7.64186 36.5095 8.47656 36.5095H20.0627L18.7123 38.8486H5.01776V11.1308H11.1406C11.6423 11.1308 12.0488 10.7242 12.0488 10.2226C12.0488 9.72105 11.6423 9.31441 11.1406 9.31441H4.71503C3.88033 9.31441 3.20136 9.99339 3.20136 10.8281V39.1511C3.20136 39.9858 3.88033 40.6647 4.71503 40.6647H57.2851C58.1198 40.6647 58.7988 39.9858 58.7988 39.1511V10.8281C58.7988 9.99339 58.1198 9.31441 57.2851 9.31441H55.7336L57.1187 7.92959H59.2754C59.7762 7.92959 60.1836 8.33707 60.1836 8.83779V42.0496ZM24.9655 20.1662V34.6929H8.7793V20.1662H24.9655ZM8.7793 18.3498V15.1362C8.7793 14.9694 8.91504 14.8335 9.08203 14.8335H24.6628C24.8298 14.8335 24.9655 14.9694 24.9655 15.1362V18.3498H8.7793ZM22.1602 36.5093H25.2683C26.103 36.5093 26.7819 35.8303 26.7819 34.9956V33.0718C27.0091 33.1808 27.2621 33.2398 27.527 33.2398C28.147 33.2398 28.7021 32.9191 29.012 32.3823L30.5576 29.7053C30.6044 29.6244 30.6758 29.6073 30.7273 29.6073C30.779 29.6073 30.8504 29.6244 30.8971 29.7053L31.85 31.3557C32.16 31.8927 32.7152 32.2132 33.3353 32.2132C33.9553 32.2132 34.5105 31.8927 34.8204 31.3558L35.057 30.946L39.6193 38.8482H20.8097L22.1602 36.5093ZM26.7819 30.0316V28.5041L30.2146 22.5588L34.0082 29.1296L33.3352 30.2952L32.4701 28.7969C32.1063 28.1669 31.4548 27.7908 30.7272 27.7908C29.9996 27.7908 29.3482 28.1669 28.9844 28.7969L27.5267 31.3218L26.7819 30.0316Z" fill="black"/>
</g>
</g>
</g>
<defs>
<clipPath id="clip0_4_5134">
<rect width="62" height="62" fill="white"/>
</clipPath>
</defs>
</svg>
