<svg width="179" height="80" viewBox="0 0 179 80" fill="none" xmlns="http://www.w3.org/2000/svg">
<path d="M144.971 42.7461L144.73 42.9763L148.573 46.9895L148.814 46.7592L144.971 42.7461Z" fill="black"/>
<path d="M53.8828 30.0352V32.3272H56.1748V30.0352H53.8828ZM53.8828 34.2031V50.3487H56.1748V34.2031H53.8828Z" fill="black"/>
<path d="M65.8952 34.2041C61.4393 34.2041 57.7891 37.8194 57.7891 42.2769C57.7891 46.7328 61.4376 50.3497 65.8952 50.3497H71.4812C70.7388 52.7399 68.5101 54.4827 65.8952 54.516H61.6008V56.7747C63.0222 56.7747 64.4737 56.808 65.8952 56.7747C70.351 56.7747 73.968 53.1594 73.968 48.7019V42.2769C73.968 37.8211 70.351 34.2041 65.8952 34.2041ZM71.676 42.2769V48.0893H65.8952C62.6977 48.0893 60.0827 45.4727 60.0827 42.2769C60.0827 39.0811 62.6993 36.4978 65.8952 36.4978C69.091 36.4978 71.676 39.0794 71.676 42.2769Z" fill="black"/>
<path d="M75.5859 30.0352V32.3272H77.8779V30.0352H75.5859ZM75.5859 34.2031V50.3487H77.8779V34.2031H75.5859Z" fill="black"/>
<path d="M79.4922 27.7441V50.348H81.7842V27.7441H79.4922Z" fill="black"/>
<path d="M83.3984 27.7441V50.348H85.6905V27.7441H83.3984Z" fill="black"/>
<path d="M87.3047 30.0352V32.3272H89.5967V30.0352H87.3047ZM87.3047 34.2031V50.3487H89.5967V34.2031H87.3047Z" fill="black"/>
<path d="M99.317 34.2031C94.8612 34.2031 91.2109 37.8184 91.2109 42.2759C91.2109 46.7318 94.8595 50.3487 99.317 50.3487H104.903C104.161 52.739 101.932 54.4817 99.317 54.515H95.0226V56.7737C96.4441 56.7737 97.8956 56.807 99.317 56.7737C103.773 56.7737 107.39 53.1584 107.39 48.7009V42.2759C107.39 37.8201 103.773 34.2031 99.317 34.2031ZM105.098 42.2759V48.0884H99.3187C96.1212 48.0884 93.5063 45.4718 93.5063 42.2759C93.5063 39.0801 96.1229 36.4968 99.3187 36.4968C102.515 36.4951 105.098 39.0784 105.098 42.2759Z" fill="black"/>
<path d="M117.114 34.2041C112.658 34.2041 109.008 37.8194 109.008 42.3102C109.008 46.7661 112.656 50.4163 117.114 50.4163C119.471 50.4163 121.7 49.3827 123.251 47.6066L121.347 46.315C120.25 47.4768 118.73 48.1243 117.117 48.1243C114.308 48.1243 111.949 46.0886 111.401 43.4421H125.147C125.821 38.5634 122.054 34.2041 117.114 34.2041ZM117.114 36.4961C119.987 36.4961 122.282 38.5318 122.83 41.1451H111.43C111.947 38.4652 114.303 36.4961 117.114 36.4961Z" fill="black"/>
<path d="M126.832 40.3724V50.351H129.124V40.4706C129.286 38.2734 131.088 36.5307 133.35 36.5307C135.572 36.5307 137.445 38.2418 137.576 40.4706C137.576 43.7646 137.61 47.057 137.61 50.351H139.875V40.3724C139.682 36.9501 136.834 34.2354 133.352 34.2354C129.895 34.2354 127.025 36.9152 126.832 40.3724Z" fill="black"/>
<path fill-rule="evenodd" clip-rule="evenodd" d="M26.6399 48.2237C26.6399 48.2237 25.1469 32.4759 30.1936 30.4153C35.2404 28.3546 39.8627 27.0031 45.3006 32.9403C50.7402 38.8759 42.5275 46.9937 42.5275 46.9937C42.5275 46.9937 39.1053 49.0127 33.3528 49.046C27.6003 49.076 26.6399 48.2237 26.6399 48.2237Z" fill="#F68923"/>
<path d="M26.4736 42.8059C26.1224 42.5812 26.0192 42.1151 26.2439 41.7622C26.4686 41.411 26.9347 41.3078 27.2876 41.5325C27.2909 41.5342 28.8572 42.5129 30.6382 42.478C31.0926 42.4696 31.5637 42.3897 32.0214 42.2033C32.4192 42.0402 32.8087 41.7972 33.1699 41.4493C33.4695 41.1597 33.9472 41.1663 34.2385 41.4659C34.5281 41.7656 34.5215 42.2433 34.2219 42.5345C33.7059 43.0322 33.1549 43.3785 32.5973 43.6065C31.9598 43.8678 31.304 43.9777 30.6698 43.9893C28.4394 44.0343 26.4786 42.8109 26.4736 42.8059Z" fill="black"/>
<path d="M31.9461 36.4411C32.279 36.1881 32.7534 36.2513 33.0064 36.5842C33.2594 36.9171 33.1962 37.3915 32.8633 37.6445C32.8549 37.6511 30.23 39.6036 31.3652 42.9958C31.4984 43.3937 31.2837 43.8214 30.8875 43.9546C30.4897 44.0878 30.0619 43.873 29.9288 43.4769C28.4474 39.046 31.9378 36.4477 31.9461 36.4411Z" fill="black"/>
<path d="M38.0381 42.2303C37.7135 41.9673 37.6635 41.4913 37.9265 41.165C38.1895 40.8404 38.6656 40.7905 38.9918 41.0535L39.1383 41.1717C40.132 41.9656 42.409 43.7833 42.5156 47.1239C42.5272 47.5417 42.1993 47.8912 41.7815 47.9029C41.3637 47.9145 41.0142 47.5866 41.0025 47.1689C40.9193 44.5306 39.0201 43.0126 38.1929 42.3518L38.0381 42.2303Z" fill="black"/>
<path d="M40.9653 39.2159C40.8322 38.8197 41.0469 38.392 41.443 38.2621C41.8392 38.129 42.267 38.3437 42.3968 38.7399C42.3985 38.7482 43.4238 41.6927 40.9537 44.0446C40.6524 44.3326 40.173 44.3226 39.8851 44.0196C39.5971 43.7184 39.6071 43.239 39.91 42.951C41.6811 41.2666 40.967 39.2226 40.9653 39.2159Z" fill="black"/>
<path d="M29.087 33.0583C28.7041 33.2231 28.2597 33.0483 28.0933 32.6655C27.9285 32.2826 28.1032 31.8382 28.4861 31.6717C28.4977 31.6651 32.7971 29.7143 37.3096 33.789C40.9581 37.0847 42.3913 35.788 42.3963 35.7831C42.7142 35.5117 43.1936 35.5534 43.4649 35.8713C43.7362 36.1892 43.6946 36.6686 43.3767 36.9399C43.37 36.9465 40.9415 39.1071 36.2959 34.9125C32.5175 31.4986 29.0986 33.0549 29.087 33.0583Z" fill="black"/>
<path d="M36.7154 42.252C36.4191 42.5483 35.9381 42.5483 35.6435 42.252C35.3488 41.9557 35.3472 41.4747 35.6435 41.1801C35.6501 41.1734 37.8023 39.0495 37.1448 35.381C37.0716 34.9698 37.3446 34.5753 37.7574 34.5021C38.1702 34.4289 38.563 34.7019 38.6362 35.1146C39.4352 39.5688 36.7221 42.247 36.7154 42.252Z" fill="black"/>
<path d="M39.7415 30.7636C40.141 30.8834 40.3691 31.3062 40.2492 31.7057C40.1294 32.1051 39.7066 32.3332 39.3071 32.2133C39.3038 32.2117 37.6576 31.724 35.8649 33.718C35.5853 34.0276 35.1059 34.0526 34.7963 33.773C34.4867 33.4933 34.4618 33.014 34.7414 32.7044C37.1732 29.9979 39.7349 30.7602 39.7415 30.7636Z" fill="black"/>
<path d="M35.5494 44.8335C35.4395 44.4323 35.6742 44.0129 36.077 43.903C36.4815 43.7932 36.8976 44.0278 37.0075 44.4307C37.0092 44.439 37.8531 47.3119 36.1852 49.1595C35.9056 49.4691 35.4262 49.4941 35.1166 49.2144C34.807 48.9348 34.7821 48.4554 35.0617 48.1458C36.1619 46.9307 35.5511 44.8401 35.5494 44.8335Z" fill="black"/>
<path fill-rule="evenodd" clip-rule="evenodd" d="M24.2531 44.4702C24.7225 44.0008 25.4882 44.0008 25.9559 44.4702L30.753 49.2673C31.2224 49.7367 31.2224 50.5023 30.753 50.9701C30.2836 51.4395 29.5179 51.4395 29.0502 50.9701L24.2531 46.173C23.7854 45.7069 23.7854 44.9396 24.2531 44.4702Z" fill="black"/>
<path fill-rule="evenodd" clip-rule="evenodd" d="M22.8821 46.6705C23.2683 46.2843 23.8958 46.2843 24.2786 46.6705L28.2152 50.607C28.6013 50.9932 28.6013 51.6207 28.2152 52.0035C27.829 52.3897 27.2015 52.3897 26.8187 52.0035L22.8821 48.067C22.4976 47.6842 22.4976 47.0566 22.8821 46.6705Z" fill="black"/>
<path fill-rule="evenodd" clip-rule="evenodd" d="M21.1556 48.3424C21.5417 47.9562 22.1692 47.9562 22.5521 48.3424L26.4886 52.2789C26.8748 52.6651 26.8748 53.2926 26.4886 53.6754C26.1024 54.0616 25.4749 54.0616 25.0921 53.6754L21.1556 49.7389C20.7711 49.3544 20.7711 48.7269 21.1556 48.3424Z" fill="black"/>
<path d="M36.8099 23.01C41.0427 23.01 44.8761 24.7277 47.6508 27.5008C50.4255 30.2755 52.1416 34.1089 52.1416 38.3417C52.1416 42.5745 50.4238 46.4078 47.6508 49.1825C44.8761 51.9573 41.0427 53.6733 36.8099 53.6733H28.6489L30.6346 51.6876H36.8099C40.4951 51.6876 43.8308 50.1945 46.2459 47.7777C48.6611 45.3625 50.1558 42.0269 50.1558 38.3417C50.1558 34.6565 48.6628 31.3208 46.2459 28.9056C43.8308 26.4904 40.4951 24.9957 36.8099 24.9957H36.8016H36.7933H36.7849H36.7766H36.7683C36.6168 24.9957 36.467 24.9991 36.3156 25.0041V24.9957H23.4623V39.6833V41.8538V43.9127L21.4766 45.8985V41.8521V39.65V23H23.4623V23.01H36.7683H36.7766H36.7849H36.7933H36.8016H36.8099Z" fill="black"/>
<path d="M133.531 23.4766V25.6154H143.034V50.1834H145.559V25.6154H155.062V23.4766H133.531Z" fill="black"/>
<path d="M157.357 25.3784L156.281 25.8721L156.42 26.1746L157.496 25.681L157.357 25.3784Z" fill="black"/>
<path d="M152.976 27.8164L151.402 29.3232L151.633 29.5637L153.206 28.0568L152.976 27.8164Z" fill="black"/>
<path d="M149.49 30.9916L148.844 34.1963L149.17 34.2621L149.816 31.0574L149.49 30.9916Z" fill="black"/>
<path d="M147.357 35.3361L145.406 37.0725L145.628 37.3212L147.578 35.5847L147.357 35.3361Z" fill="black"/>
<path d="M144.17 38.1785L144.137 40.7898L144.47 40.794L144.503 38.1827L144.17 38.1785Z" fill="black"/>
<path d="M148.489 36.6289H148.156V39.104H148.489V36.6289Z" fill="black"/>
<path d="M147.416 40.5292L145.082 41.4167L145.2 41.7279L147.534 40.8403L147.416 40.5292Z" fill="black"/>
<path d="M141.302 35.4853L141.125 35.7673L143.029 36.9612L143.206 36.6792L141.302 35.4853Z" fill="black"/>
<path d="M154.386 28.7745C155.613 28.7745 156.608 27.7797 156.608 26.5524C156.608 25.3252 155.613 24.3303 154.386 24.3303C153.159 24.3303 152.164 25.3252 152.164 26.5524C152.164 27.7797 153.159 28.7745 154.386 28.7745Z" fill="black"/>
<path d="M154.385 28.9392C153.068 28.9392 151.996 27.8673 151.996 26.5507C151.996 25.234 153.068 24.1621 154.385 24.1621C155.701 24.1621 156.773 25.234 156.773 26.5507C156.773 27.8673 155.701 28.9392 154.385 28.9392ZM154.385 24.4967C153.251 24.4967 152.329 25.4188 152.329 26.5523C152.329 27.6858 153.251 28.608 154.385 28.608C155.518 28.608 156.44 27.6858 156.44 26.5523C156.439 25.4188 155.517 24.4967 154.385 24.4967Z" fill="black"/>
<path d="M150.569 31.4443C151.245 31.4443 151.794 30.8958 151.794 30.2192C151.794 29.5426 151.245 28.9941 150.569 28.9941C149.892 28.9941 149.344 29.5426 149.344 30.2192C149.344 30.8958 149.892 31.4443 150.569 31.4443Z" fill="#F68923"/>
<path d="M150.571 31.6112C149.804 31.6112 149.18 30.987 149.18 30.2196C149.18 29.4523 149.804 28.8281 150.571 28.8281C151.339 28.8281 151.963 29.4523 151.963 30.2196C151.963 30.987 151.339 31.6112 150.571 31.6112ZM150.571 29.161C149.987 29.161 149.513 29.6354 149.513 30.2196C149.513 30.8039 149.987 31.2783 150.571 31.2783C151.155 31.2783 151.63 30.8039 151.63 30.2196C151.63 29.6354 151.154 29.161 150.571 29.161Z" fill="black"/>
<path d="M148.696 37.0002C149.546 37.0002 150.236 36.3109 150.236 35.4606C150.236 34.6102 149.546 33.9209 148.696 33.9209C147.846 33.9209 147.156 34.6102 147.156 35.4606C147.156 36.3109 147.846 37.0002 148.696 37.0002Z" fill="black"/>
<path d="M144.288 38.4208C144.964 38.4208 145.513 37.8724 145.513 37.1958C145.513 36.5192 144.964 35.9707 144.288 35.9707C143.611 35.9707 143.062 36.5192 143.062 37.1958C143.062 37.8724 143.611 38.4208 144.288 38.4208Z" fill="black"/>
<path d="M144.29 38.5877C143.523 38.5877 142.898 37.9635 142.898 37.1962C142.898 36.4289 143.523 35.8047 144.29 35.8047C145.057 35.8047 145.681 36.4289 145.681 37.1962C145.681 37.9635 145.057 38.5877 144.29 38.5877ZM144.29 36.1376C143.706 36.1376 143.231 36.612 143.231 37.1962C143.231 37.7804 143.706 38.2548 144.29 38.2548C144.874 38.2548 145.349 37.7804 145.349 37.1962C145.349 36.612 144.874 36.1376 144.29 36.1376Z" fill="#F68923"/>
<path d="M140.336 36.3289C141.1 36.3289 141.72 35.7096 141.72 34.9457C141.72 34.1818 141.1 33.5625 140.336 33.5625C139.572 33.5625 138.953 34.1818 138.953 34.9457C138.953 35.7096 139.572 36.3289 140.336 36.3289Z" fill="black"/>
<path d="M158.672 26.4159C159.425 26.4159 160.035 25.8056 160.035 25.0527C160.035 24.2998 159.425 23.6895 158.672 23.6895C157.919 23.6895 157.309 24.2998 157.309 25.0527C157.309 25.8056 157.919 26.4159 158.672 26.4159Z" fill="black"/>
<path d="M148.325 41.1442C148.889 41.1442 149.345 40.6874 149.345 40.1239C149.345 39.5603 148.889 39.1035 148.325 39.1035C147.762 39.1035 147.305 39.5603 147.305 40.1239C147.305 40.6874 147.762 41.1442 148.325 41.1442Z" fill="#F68923"/>
<path d="M148.327 41.3111C147.673 41.3111 147.141 40.7784 147.141 40.1243C147.141 39.4701 147.673 38.9375 148.327 38.9375C148.982 38.9375 149.514 39.4701 149.514 40.1243C149.514 40.7784 148.982 41.3111 148.327 41.3111ZM148.327 39.2704C147.856 39.2704 147.474 39.6532 147.474 40.1243C147.474 40.5953 147.856 40.9782 148.327 40.9782C148.798 40.9782 149.181 40.5953 149.181 40.1243C149.181 39.6532 148.798 39.2704 148.327 39.2704Z" fill="black"/>
<path d="M144.32 37.727C144.613 37.727 144.851 37.4893 144.851 37.196C144.851 36.9028 144.613 36.665 144.32 36.665C144.027 36.665 143.789 36.9028 143.789 37.196C143.789 37.4893 144.027 37.727 144.32 37.727Z" fill="black"/>
<path d="M144.321 37.8104C143.982 37.8104 143.707 37.5341 143.707 37.1962C143.707 36.8583 143.983 36.582 144.321 36.582C144.659 36.582 144.935 36.8583 144.935 37.1962C144.935 37.5341 144.661 37.8104 144.321 37.8104ZM144.321 36.7485C144.075 36.7485 143.873 36.9499 143.873 37.1962C143.873 37.4426 144.075 37.644 144.321 37.644C144.568 37.644 144.769 37.4426 144.769 37.1962C144.769 36.9499 144.569 36.7485 144.321 36.7485Z" fill="black"/>
<path d="M144.324 43.9153C145.159 43.9153 145.835 43.2386 145.835 42.4039C145.835 41.5692 145.159 40.8926 144.324 40.8926C143.489 40.8926 142.812 41.5692 142.812 42.4039C142.812 43.2386 143.489 43.9153 144.324 43.9153Z" fill="#F68923"/>
<path d="M144.326 44.0822C143.401 44.0822 142.648 43.3298 142.648 42.4044C142.648 41.4789 143.401 40.7266 144.326 40.7266C145.252 40.7266 146.004 41.4789 146.004 42.4044C146.004 43.3298 145.252 44.0822 144.326 44.0822ZM144.326 41.0595C143.584 41.0595 142.981 41.6637 142.981 42.4044C142.981 43.1467 143.586 43.7493 144.326 43.7493C145.069 43.7493 145.671 43.1451 145.671 42.4044C145.671 41.662 145.069 41.0595 144.326 41.0595Z" fill="black"/>
<path d="M144.367 43.0606C144.729 43.0606 145.023 42.767 145.023 42.4048C145.023 42.0426 144.729 41.749 144.367 41.749C144.005 41.749 143.711 42.0426 143.711 42.4048C143.711 42.767 144.005 43.0606 144.367 43.0606Z" fill="black"/>
<path d="M144.364 43.1441C143.956 43.1441 143.625 42.8129 143.625 42.4051C143.625 41.9972 143.956 41.666 144.364 41.666C144.772 41.666 145.103 41.9972 145.103 42.4051C145.103 42.8129 144.772 43.1441 144.364 43.1441ZM144.364 41.8325C144.048 41.8325 143.791 42.0888 143.791 42.4051C143.791 42.7213 144.048 42.9776 144.364 42.9776C144.68 42.9776 144.937 42.7213 144.937 42.4051C144.937 42.0888 144.679 41.8325 144.364 41.8325Z" fill="black"/>
<path d="M154.386 27.7041C155.022 27.7041 155.538 27.1884 155.538 26.5522C155.538 25.9161 155.022 25.4004 154.386 25.4004C153.75 25.4004 153.234 25.9161 153.234 26.5522C153.234 27.1884 153.75 27.7041 154.386 27.7041Z" fill="#F68923"/>
<path d="M154.389 27.8709C153.661 27.8709 153.07 27.28 153.07 26.5527C153.07 25.8253 153.661 25.2344 154.389 25.2344C155.116 25.2344 155.707 25.8253 155.707 26.5527C155.707 27.28 155.114 27.8709 154.389 27.8709ZM154.389 25.5673C153.846 25.5673 153.403 26.0084 153.403 26.5527C153.403 27.0953 153.846 27.538 154.389 27.538C154.931 27.538 155.374 27.0969 155.374 26.5527C155.372 26.0084 154.931 25.5673 154.389 25.5673Z" fill="black"/>
<path d="M148.853 48.2588C149.615 48.2588 150.232 47.641 150.232 46.8789C150.232 46.1168 149.615 45.499 148.853 45.499C148.09 45.499 147.473 46.1168 147.473 46.8789C147.473 47.641 148.09 48.2588 148.853 48.2588Z" fill="black"/>
<path d="M148.854 47.6858C149.3 47.6858 149.661 47.3244 149.661 46.8786C149.661 46.4327 149.3 46.0713 148.854 46.0713C148.408 46.0713 148.047 46.4327 148.047 46.8786C148.047 47.3244 148.408 47.6858 148.854 47.6858Z" fill="black"/>
<path d="M148.855 47.7693C148.364 47.7693 147.965 47.3698 147.965 46.8788C147.965 46.3878 148.364 45.9883 148.855 45.9883C149.346 45.9883 149.746 46.3878 149.746 46.8788C149.746 47.3698 149.346 47.7693 148.855 47.7693ZM148.855 46.1547C148.456 46.1547 148.131 46.4793 148.131 46.8788C148.131 47.2783 148.456 47.6028 148.855 47.6028C149.255 47.6028 149.579 47.2783 149.579 46.8788C149.579 46.4793 149.255 46.1547 148.855 46.1547Z" fill="#F68923"/>
<path d="M140.34 35.8571C140.843 35.8571 141.251 35.4495 141.251 34.9466C141.251 34.4438 140.843 34.0361 140.34 34.0361C139.837 34.0361 139.43 34.4438 139.43 34.9466C139.43 35.4495 139.837 35.8571 140.34 35.8571Z" fill="black"/>
<path d="M140.337 35.9402C139.79 35.9402 139.344 35.4942 139.344 34.9449C139.344 34.3973 139.79 33.9512 140.337 33.9512C140.885 33.9512 141.331 34.3973 141.331 34.9449C141.331 35.4942 140.885 35.9402 140.337 35.9402ZM140.337 34.1176C139.881 34.1176 139.51 34.4888 139.51 34.9449C139.51 35.4009 139.881 35.7738 140.337 35.7738C140.794 35.7738 141.165 35.4026 141.165 34.9449C141.165 34.4871 140.794 34.1176 140.337 34.1176Z" fill="#F68923"/>
<path d="M148.697 36.5121C149.294 36.5121 149.778 36.0284 149.778 35.4318C149.778 34.8352 149.294 34.3516 148.697 34.3516C148.101 34.3516 147.617 34.8352 147.617 35.4318C147.617 36.0284 148.101 36.5121 148.697 36.5121Z" fill="black"/>
<path d="M148.695 36.5955C148.054 36.5955 147.531 36.0729 147.531 35.432C147.531 34.7912 148.054 34.2686 148.695 34.2686C149.336 34.2686 149.858 34.7912 149.858 35.432C149.858 36.0729 149.336 36.5955 148.695 36.5955ZM148.695 34.435C148.145 34.435 147.698 34.8828 147.698 35.432C147.698 35.9813 148.145 36.4291 148.695 36.4291C149.244 36.4291 149.692 35.9813 149.692 35.432C149.692 34.8828 149.244 34.435 148.695 34.435Z" fill="#F68923"/>
<path d="M158.674 25.8972C159.141 25.8972 159.519 25.5186 159.519 25.0516C159.519 24.5846 159.141 24.2061 158.674 24.2061C158.207 24.2061 157.828 24.5846 157.828 25.0516C157.828 25.5186 158.207 25.8972 158.674 25.8972Z" fill="black"/>
<path d="M158.671 25.9806C158.158 25.9806 157.742 25.5645 157.742 25.0518C157.742 24.5392 158.158 24.123 158.671 24.123C159.184 24.123 159.6 24.5392 159.6 25.0518C159.6 25.5645 159.184 25.9806 158.671 25.9806ZM158.671 24.2895C158.25 24.2895 157.909 24.6324 157.909 25.0518C157.909 25.4713 158.252 25.8142 158.671 25.8142C159.09 25.8142 159.433 25.4713 159.433 25.0518C159.433 24.6324 159.092 24.2895 158.671 24.2895Z" fill="#F68923"/>
<path d="M107.575 57.2852V53.957H109.584V54.3145H107.978V55.439H109.48V55.7966H107.978V56.9276H109.61V57.2852H107.575ZM110.641 55.7836V57.2852H110.258V54.789H110.628V55.179H110.661C110.719 55.0523 110.808 54.9504 110.927 54.8735C111.047 54.7955 111.2 54.7565 111.389 54.7565C111.558 54.7565 111.706 54.7912 111.833 54.8605C111.959 54.9288 112.058 55.0328 112.128 55.1725C112.199 55.3112 112.234 55.4867 112.234 55.6991V57.2852H111.851V55.7251C111.851 55.529 111.8 55.3762 111.698 55.2668C111.596 55.1563 111.456 55.101 111.278 55.101C111.156 55.101 111.047 55.1276 110.95 55.1807C110.855 55.2337 110.78 55.3112 110.724 55.413C110.669 55.5149 110.641 55.6384 110.641 55.7836ZM113.877 57.3372C113.669 57.3372 113.486 57.2846 113.327 57.1795C113.167 57.0734 113.043 56.9238 112.953 56.731C112.863 56.5371 112.818 56.3079 112.818 56.0436C112.818 55.7814 112.863 55.5539 112.953 55.361C113.043 55.1682 113.168 55.0192 113.328 54.9141C113.488 54.8091 113.674 54.7565 113.884 54.7565C114.046 54.7565 114.175 54.7836 114.269 54.8378C114.364 54.8908 114.437 54.9515 114.487 55.0198C114.538 55.0869 114.577 55.1422 114.605 55.1855H114.638V53.957H115.021V57.2852H114.651V56.9016H114.605C114.577 56.9471 114.537 57.0046 114.485 57.0739C114.433 57.1421 114.359 57.2034 114.263 57.2575C114.166 57.3106 114.038 57.3372 113.877 57.3372ZM113.929 56.9926C114.083 56.9926 114.213 56.9526 114.319 56.8724C114.426 56.7911 114.506 56.679 114.562 56.536C114.617 56.3919 114.644 56.2256 114.644 56.0371C114.644 55.8507 114.617 55.6877 114.563 55.5479C114.509 55.4071 114.429 55.2977 114.323 55.2197C114.217 55.1406 114.085 55.101 113.929 55.101C113.767 55.101 113.631 55.1427 113.523 55.2262C113.416 55.3085 113.335 55.4206 113.281 55.5626C113.228 55.7034 113.201 55.8616 113.201 56.0371C113.201 56.2148 113.228 56.3762 113.283 56.5214C113.338 56.6655 113.419 56.7803 113.526 56.8659C113.635 56.9504 113.769 56.9926 113.929 56.9926ZM117.207 55.6796V56.0371H115.751V55.6796H117.207ZM118.968 54.789V55.114H117.674V54.789H118.968ZM118.051 54.191H118.435V56.5701C118.435 56.6785 118.45 56.7597 118.482 56.8139C118.514 56.867 118.555 56.9027 118.605 56.9211C118.656 56.9385 118.71 56.9471 118.766 56.9471C118.808 56.9471 118.843 56.945 118.87 56.9406C118.897 56.9352 118.919 56.9309 118.935 56.9276L119.013 57.2722C118.987 57.2819 118.951 57.2917 118.904 57.3014C118.858 57.3122 118.799 57.3177 118.727 57.3177C118.619 57.3177 118.513 57.2944 118.409 57.2478C118.306 57.2012 118.22 57.1302 118.152 57.0349C118.085 56.9396 118.051 56.8193 118.051 56.6741V54.191ZM120.532 57.3372C120.306 57.3372 120.109 57.2835 119.939 57.1763C119.77 57.069 119.637 56.919 119.542 56.7261C119.448 56.5333 119.401 56.3079 119.401 56.0501C119.401 55.7901 119.448 55.5631 119.542 55.3692C119.637 55.1752 119.77 55.0246 119.939 54.9174C120.109 54.8101 120.306 54.7565 120.532 54.7565C120.757 54.7565 120.954 54.8101 121.123 54.9174C121.293 55.0246 121.426 55.1752 121.52 55.3692C121.615 55.5631 121.663 55.7901 121.663 56.0501C121.663 56.3079 121.615 56.5333 121.52 56.7261C121.426 56.919 121.293 57.069 121.123 57.1763C120.954 57.2835 120.757 57.3372 120.532 57.3372ZM120.532 56.9926C120.703 56.9926 120.844 56.9488 120.954 56.861C121.065 56.7733 121.147 56.6579 121.2 56.5149C121.253 56.3719 121.279 56.2169 121.279 56.0501C121.279 55.8832 121.253 55.7278 121.2 55.5837C121.147 55.4396 121.065 55.3231 120.954 55.2343C120.844 55.1454 120.703 55.101 120.532 55.101C120.361 55.101 120.22 55.1454 120.109 55.2343C119.999 55.3231 119.917 55.4396 119.864 55.5837C119.811 55.7278 119.784 55.8832 119.784 56.0501C119.784 56.2169 119.811 56.3719 119.864 56.5149C119.917 56.6579 119.999 56.7733 120.109 56.861C120.22 56.9488 120.361 56.9926 120.532 56.9926ZM123.678 55.6796V56.0371H122.222V55.6796H123.678ZM124.405 57.2852V53.957H126.414V54.3145H124.808V55.439H126.31V55.7966H124.808V56.9276H126.44V57.2852H124.405ZM127.472 55.7836V57.2852H127.088V54.789H127.459V55.179H127.491C127.55 55.0523 127.639 54.9504 127.758 54.8735C127.877 54.7955 128.031 54.7565 128.219 54.7565C128.388 54.7565 128.536 54.7912 128.663 54.8605C128.79 54.9288 128.888 55.0328 128.959 55.1725C129.029 55.3112 129.064 55.4867 129.064 55.6991V57.2852H128.681V55.7251C128.681 55.529 128.63 55.3762 128.528 55.2668C128.426 55.1563 128.286 55.101 128.109 55.101C127.986 55.101 127.877 55.1276 127.781 55.1807C127.685 55.2337 127.61 55.3112 127.555 55.413C127.499 55.5149 127.472 55.6384 127.472 55.7836ZM130.708 57.3372C130.5 57.3372 130.316 57.2846 130.157 57.1795C129.998 57.0734 129.873 56.9238 129.783 56.731C129.693 56.5371 129.648 56.3079 129.648 56.0436C129.648 55.7814 129.693 55.5539 129.783 55.361C129.873 55.1682 129.998 55.0192 130.158 54.9141C130.319 54.8091 130.504 54.7565 130.714 54.7565C130.877 54.7565 131.005 54.7836 131.099 54.8378C131.195 54.8908 131.267 54.9515 131.317 55.0198C131.368 55.0869 131.408 55.1422 131.436 55.1855H131.468V53.957H131.852V57.2852H131.481V56.9016H131.436C131.408 56.9471 131.368 57.0046 131.316 57.0739C131.264 57.1421 131.189 57.2034 131.093 57.2575C130.996 57.3106 130.868 57.3372 130.708 57.3372ZM130.76 56.9926C130.914 56.9926 131.044 56.9526 131.15 56.8724C131.256 56.7911 131.337 56.679 131.392 56.536C131.447 56.3919 131.475 56.2256 131.475 56.0371C131.475 55.8507 131.448 55.6877 131.394 55.5479C131.339 55.4071 131.259 55.2977 131.153 55.2197C131.047 55.1406 130.916 55.101 130.76 55.101C130.597 55.101 130.462 55.1427 130.353 55.2262C130.246 55.3085 130.165 55.4206 130.111 55.5626C130.058 55.7034 130.032 55.8616 130.032 56.0371C130.032 56.2148 130.059 56.3762 130.113 56.5214C130.168 56.6655 130.249 56.7803 130.357 56.8659C130.465 56.9504 130.599 56.9926 130.76 56.9926ZM133.947 57.2852V53.957H135.955V54.3145H134.35V55.439H135.851V55.7966H134.35V56.9276H135.981V57.2852H133.947ZM136.916 54.789L137.514 55.8096L138.112 54.789H138.554L137.748 56.0371L138.554 57.2852H138.112L137.514 56.3166L136.916 57.2852H136.474L137.267 56.0371L136.474 54.789H136.916ZM140.012 57.3372C139.778 57.3372 139.577 57.2819 139.408 57.1714C139.239 57.0609 139.109 56.9087 139.018 56.7147C138.927 56.5208 138.881 56.2993 138.881 56.0501C138.881 55.7966 138.928 55.5728 139.021 55.3789C139.115 55.1839 139.246 55.0317 139.414 54.9223C139.583 54.8118 139.78 54.7565 140.006 54.7565C140.181 54.7565 140.339 54.789 140.48 54.854C140.621 54.919 140.736 55.01 140.826 55.127C140.916 55.244 140.972 55.3805 140.994 55.5366H140.61C140.581 55.4228 140.516 55.322 140.415 55.2343C140.316 55.1454 140.181 55.101 140.012 55.101C139.863 55.101 139.732 55.14 139.619 55.218C139.507 55.295 139.42 55.4038 139.357 55.5447C139.296 55.6844 139.265 55.8486 139.265 56.0371C139.265 56.2299 139.295 56.3979 139.356 56.5409C139.417 56.6839 139.504 56.7949 139.616 56.874C139.728 56.9531 139.861 56.9926 140.012 56.9926C140.112 56.9926 140.202 56.9753 140.284 56.9406C140.365 56.906 140.434 56.8561 140.49 56.7911C140.546 56.7261 140.586 56.6481 140.61 56.5571H140.994C140.972 56.7045 140.918 56.8372 140.833 56.9553C140.748 57.0723 140.636 57.1654 140.496 57.2348C140.358 57.303 140.196 57.3372 140.012 57.3372ZM142.601 57.3372C142.36 57.3372 142.153 57.2841 141.979 57.1779C141.805 57.0706 141.671 56.9211 141.577 56.7294C141.484 56.5365 141.437 56.3123 141.437 56.0566C141.437 55.8009 141.484 55.5756 141.577 55.3805C141.671 55.1845 141.803 55.0317 141.97 54.9223C142.139 54.8118 142.337 54.7565 142.562 54.7565C142.692 54.7565 142.82 54.7782 142.947 54.8215C143.074 54.8648 143.189 54.9353 143.293 55.0328C143.397 55.1292 143.48 55.257 143.542 55.4163C143.604 55.5756 143.635 55.7717 143.635 56.0046V56.1671H141.71V55.8356H143.245C143.245 55.6947 143.216 55.5691 143.16 55.4585C143.105 55.348 143.026 55.2608 142.923 55.1969C142.821 55.133 142.701 55.101 142.562 55.101C142.409 55.101 142.277 55.1389 142.165 55.2148C142.055 55.2895 141.97 55.387 141.91 55.5073C141.851 55.6276 141.821 55.7565 141.821 55.8941V56.1151C141.821 56.3036 141.853 56.4634 141.918 56.5945C141.985 56.7245 142.076 56.8236 142.193 56.8919C142.31 56.9591 142.446 56.9926 142.601 56.9926C142.702 56.9926 142.793 56.9786 142.874 56.9504C142.956 56.9211 143.027 56.8778 143.087 56.8204C143.146 56.7619 143.193 56.6893 143.225 56.6026L143.596 56.7066C143.557 56.8323 143.491 56.9428 143.399 57.0381C143.307 57.1324 143.193 57.2061 143.058 57.2592C142.922 57.3112 142.77 57.3372 142.601 57.3372ZM144.601 53.957V57.2852H144.218V53.957H144.601ZM145.687 53.957V57.2852H145.304V53.957H145.687ZM147.436 57.3372C147.196 57.3372 146.988 57.2841 146.814 57.1779C146.641 57.0706 146.507 56.9211 146.413 56.7294C146.319 56.5365 146.273 56.3123 146.273 56.0566C146.273 55.8009 146.319 55.5756 146.413 55.3805C146.507 55.1845 146.638 55.0317 146.806 54.9223C146.975 54.8118 147.172 54.7565 147.397 54.7565C147.527 54.7565 147.656 54.7782 147.783 54.8215C147.909 54.8648 148.025 54.9353 148.129 55.0328C148.233 55.1292 148.316 55.257 148.377 55.4163C148.439 55.5756 148.47 55.7717 148.47 56.0046V56.1671H146.546V55.8356H148.08C148.08 55.6947 148.052 55.5691 147.995 55.4585C147.94 55.348 147.861 55.2608 147.758 55.1969C147.656 55.133 147.536 55.101 147.397 55.101C147.245 55.101 147.113 55.1389 147.001 55.2148C146.89 55.2895 146.805 55.387 146.746 55.5073C146.686 55.6276 146.656 55.7565 146.656 55.8941V56.1151C146.656 56.3036 146.689 56.4634 146.754 56.5945C146.82 56.7245 146.912 56.8236 147.029 56.8919C147.146 56.9591 147.282 56.9926 147.436 56.9926C147.537 56.9926 147.628 56.9786 147.709 56.9504C147.792 56.9211 147.863 56.8778 147.922 56.8204C147.982 56.7619 148.028 56.6893 148.06 56.6026L148.431 56.7066C148.392 56.8323 148.326 56.9428 148.234 57.0381C148.142 57.1324 148.029 57.2061 147.893 57.2592C147.758 57.3112 147.605 57.3372 147.436 57.3372ZM149.437 55.7836V57.2852H149.053V54.789H149.424V55.179H149.456C149.515 55.0523 149.604 54.9504 149.723 54.8735C149.842 54.7955 149.996 54.7565 150.184 54.7565C150.353 54.7565 150.501 54.7912 150.628 54.8605C150.755 54.9288 150.853 55.0328 150.924 55.1725C150.994 55.3112 151.03 55.4867 151.03 55.6991V57.2852H150.646V55.7251C150.646 55.529 150.595 55.3762 150.493 55.2668C150.391 55.1563 150.252 55.101 150.074 55.101C149.952 55.101 149.842 55.1276 149.746 55.1807C149.65 55.2337 149.575 55.3112 149.52 55.413C149.465 55.5149 149.437 55.6384 149.437 55.7836ZM152.744 57.3372C152.51 57.3372 152.309 57.2819 152.14 57.1714C151.971 57.0609 151.841 56.9087 151.75 56.7147C151.659 56.5208 151.613 56.2993 151.613 56.0501C151.613 55.7966 151.66 55.5728 151.753 55.3789C151.847 55.1839 151.978 55.0317 152.146 54.9223C152.315 54.8118 152.513 54.7565 152.738 54.7565C152.913 54.7565 153.072 54.789 153.212 54.854C153.353 54.919 153.469 55.01 153.559 55.127C153.649 55.244 153.704 55.3805 153.726 55.5366H153.342C153.313 55.4228 153.248 55.322 153.147 55.2343C153.048 55.1454 152.913 55.101 152.744 55.101C152.595 55.101 152.464 55.14 152.351 55.218C152.24 55.295 152.152 55.4038 152.09 55.5447C152.028 55.6844 151.997 55.8486 151.997 56.0371C151.997 56.2299 152.027 56.3979 152.088 56.5409C152.15 56.6839 152.236 56.7949 152.348 56.874C152.461 56.9531 152.593 56.9926 152.744 56.9926C152.844 56.9926 152.935 56.9753 153.016 56.9406C153.097 56.906 153.166 56.8561 153.222 56.7911C153.279 56.7261 153.319 56.6481 153.342 56.5571H153.726C153.704 56.7045 153.651 56.8372 153.565 56.9553C153.481 57.0723 153.368 57.1654 153.229 57.2348C153.09 57.303 152.929 57.3372 152.744 57.3372ZM155.333 57.3372C155.093 57.3372 154.885 57.2841 154.711 57.1779C154.537 57.0706 154.404 56.9211 154.309 56.7294C154.216 56.5365 154.17 56.3123 154.17 56.0566C154.17 55.8009 154.216 55.5756 154.309 55.3805C154.404 55.1845 154.535 55.0317 154.703 54.9223C154.872 54.8118 155.069 54.7565 155.294 54.7565C155.424 54.7565 155.553 54.7782 155.679 54.8215C155.806 54.8648 155.921 54.9353 156.025 55.0328C156.129 55.1292 156.212 55.257 156.274 55.4163C156.336 55.5756 156.367 55.7717 156.367 56.0046V56.1671H154.443V55.8356H155.977C155.977 55.6947 155.949 55.5691 155.892 55.4585C155.837 55.348 155.758 55.2608 155.655 55.1969C155.553 55.133 155.433 55.101 155.294 55.101C155.141 55.101 155.009 55.1389 154.898 55.2148C154.787 55.2895 154.702 55.387 154.643 55.5073C154.583 55.6276 154.553 55.7565 154.553 55.8941V56.1151C154.553 56.3036 154.586 56.4634 154.651 56.5945C154.717 56.7245 154.808 56.8236 154.925 56.8919C155.042 56.9591 155.178 56.9926 155.333 56.9926C155.434 56.9926 155.525 56.9786 155.606 56.9504C155.689 56.9211 155.76 56.8778 155.819 56.8204C155.879 56.7619 155.925 56.6893 155.957 56.6026L156.328 56.7066C156.289 56.8323 156.223 56.9428 156.131 57.0381C156.039 57.1324 155.925 57.2061 155.79 57.2592C155.654 57.3112 155.502 57.3372 155.333 57.3372Z" fill="black"/>
<path d="M25.4727 49.8331L27.4368 49.8398L25.4727 47.8757V49.8331ZM31.0654 49.8498L36.8062 49.8664C41.2954 49.8664 45.4283 47.2498 47.2692 42.9221C47.8502 41.5339 48.1414 40.0492 48.1414 38.4996C48.1414 32.2028 43.0714 27.166 36.8079 27.166C30.6709 27.166 25.4743 32.1395 25.4743 38.4996V44.2654C25.5642 44.3187 25.6474 44.3836 25.7257 44.4618L27.7364 46.4725V38.4996C27.7364 33.6243 31.7095 29.458 36.8112 29.458C41.8163 29.458 45.886 33.5261 45.886 38.4996C45.886 43.4082 41.9129 47.5744 36.8112 47.5744L28.8116 47.5461L30.8873 49.6217C30.9522 49.6916 31.0138 49.7682 31.0654 49.8498Z" fill="black"/>
</svg>
