<svg width="62" height="62" viewBox="0 0 62 62" fill="none" xmlns="http://www.w3.org/2000/svg">
<g id="Frame">
<path id="Vector" d="M35.8438 52.3125H33.9062V42.8188C33.9062 42.5618 33.8042 42.3154 33.6225 42.1337C33.4408 41.9521 33.1944 41.85 32.9375 41.85C32.6806 41.85 32.4342 41.9521 32.2525 42.1337C32.0708 42.3154 31.9688 42.5618 31.9688 42.8188V52.3125H6.78125V32.9375H14.8412C15.0982 32.9375 15.3446 32.8354 15.5263 32.6538C15.7079 32.4721 15.81 32.2257 15.81 31.9688C15.81 31.7118 15.7079 31.4654 15.5263 31.2837C15.3446 31.1021 15.0982 31 14.8412 31H5.8125C5.55557 31 5.30917 31.1021 5.12749 31.2837C4.94581 31.4654 4.84375 31.7118 4.84375 31.9688V52.3125H2.90625C2.64932 52.3125 2.40292 52.4146 2.22124 52.5962C2.03956 52.7779 1.9375 53.0243 1.9375 53.2812V55.2188C1.9375 56.5034 2.44782 57.7354 3.3562 58.6438C4.26458 59.5522 5.49661 60.0625 6.78125 60.0625H31.9688C33.2534 60.0625 34.4854 59.5522 35.3938 58.6438C36.3022 57.7354 36.8125 56.5034 36.8125 55.2188V53.2812C36.8125 53.0243 36.7104 52.7779 36.5288 52.5962C36.3471 52.4146 36.1007 52.3125 35.8438 52.3125ZM34.875 55.2188C34.875 55.9895 34.5688 56.7288 34.0238 57.2738C33.4788 57.8188 32.7395 58.125 31.9688 58.125H30.0312V57.1562C30.0312 56.8993 29.9292 56.6529 29.7475 56.4712C29.5658 56.2896 29.3194 56.1875 29.0625 56.1875C28.8056 56.1875 28.5592 56.2896 28.3775 56.4712C28.1958 56.6529 28.0938 56.8993 28.0938 57.1562V58.125H10.6562V57.1562C10.6562 56.8993 10.5542 56.6529 10.3725 56.4712C10.1908 56.2896 9.94443 56.1875 9.6875 56.1875C9.43057 56.1875 9.18417 56.2896 9.00249 56.4712C8.82081 56.6529 8.71875 56.8993 8.71875 57.1562V58.125H6.78125C6.01046 58.125 5.27125 57.8188 4.72622 57.2738C4.18119 56.7288 3.875 55.9895 3.875 55.2188V54.25H34.875V55.2188Z" fill="white"/>
<path id="Vector_2" d="M52.3125 7.75H54.25C54.5069 7.75 54.7533 7.64794 54.935 7.46626C55.1167 7.28458 55.2188 7.03818 55.2188 6.78125C55.2188 6.52432 55.1167 6.27792 54.935 6.09624C54.7533 5.91456 54.5069 5.8125 54.25 5.8125H52.3125C51.5417 5.8125 50.8025 6.11869 50.2575 6.66372C49.7124 7.20875 49.4062 7.94796 49.4062 8.71875V9.6875H48.4375C48.1806 9.6875 47.9342 9.78956 47.7525 9.97124C47.5708 10.1529 47.4688 10.3993 47.4688 10.6562C47.4688 10.9132 47.5708 11.1596 47.7525 11.3413C47.9342 11.5229 48.1806 11.625 48.4375 11.625H49.4062V14.5312C49.4062 14.7882 49.5083 15.0346 49.69 15.2163C49.8717 15.3979 50.1181 15.5 50.375 15.5C50.6319 15.5 50.8783 15.3979 51.06 15.2163C51.2417 15.0346 51.3438 14.7882 51.3438 14.5312V11.625H52.3125C52.5694 11.625 52.8158 11.5229 52.9975 11.3413C53.1792 11.1596 53.2812 10.9132 53.2812 10.6562C53.2812 10.3993 53.1792 10.1529 52.9975 9.97124C52.8158 9.78956 52.5694 9.6875 52.3125 9.6875H51.3438V8.71875C51.3438 8.46182 51.4458 8.21542 51.6275 8.03374C51.8092 7.85206 52.0556 7.75 52.3125 7.75Z" fill="white"/>
<path id="Vector_3" d="M57.1562 1.9375H45.5312C44.7605 1.9375 44.0213 2.24369 43.4762 2.78872C42.9312 3.33375 42.625 4.07296 42.625 4.84375V6.78125C42.625 7.03818 42.7271 7.28458 42.9087 7.46626C43.0904 7.64794 43.3368 7.75 43.5938 7.75C43.8507 7.75 44.0971 7.64794 44.2788 7.46626C44.4604 7.28458 44.5625 7.03818 44.5625 6.78125V4.84375C44.5625 4.58682 44.6646 4.34042 44.8462 4.15874C45.0279 3.97706 45.2743 3.875 45.5312 3.875H57.1562C57.4132 3.875 57.6596 3.97706 57.8413 4.15874C58.0229 4.34042 58.125 4.58682 58.125 4.84375V16.4688C58.125 16.7257 58.0229 16.9721 57.8413 17.1538C57.6596 17.3354 57.4132 17.4375 57.1562 17.4375H45.5312C45.2743 17.4375 45.0279 17.3354 44.8462 17.1538C44.6646 16.9721 44.5625 16.7257 44.5625 16.4688V10.6562C44.5625 10.3993 44.4604 10.1529 44.2788 9.97124C44.0971 9.78956 43.8507 9.6875 43.5938 9.6875C43.3368 9.6875 43.0904 9.78956 42.9087 9.97124C42.7271 10.1529 42.625 10.3993 42.625 10.6562V16.4688C42.625 17.2395 42.9312 17.9788 43.4762 18.5238C44.0213 19.0688 44.7605 19.375 45.5312 19.375H57.1562C57.927 19.375 58.6663 19.0688 59.2113 18.5238C59.7563 17.9788 60.0625 17.2395 60.0625 16.4688V4.84375C60.0625 4.07296 59.7563 3.33375 59.2113 2.78872C58.6663 2.24369 57.927 1.9375 57.1562 1.9375Z" fill="white"/>
<path id="Vector_4" d="M47.4688 40.6875C47.4688 41.4539 47.696 42.2031 48.1218 42.8403C48.5476 43.4776 49.1528 43.9742 49.8609 44.2675C50.5689 44.5608 51.348 44.6376 52.0997 44.488C52.8514 44.3385 53.5419 43.9695 54.0838 43.4275C54.6257 42.8856 54.9948 42.1952 55.1443 41.4435C55.2938 40.6918 55.2171 39.9127 54.9238 39.2046C54.6305 38.4965 54.1338 37.8913 53.4966 37.4656C52.8593 37.0398 52.1102 36.8125 51.3437 36.8125C50.316 36.8125 49.3304 37.2208 48.6037 37.9475C47.877 38.6742 47.4688 39.6598 47.4688 40.6875ZM53.2812 40.6875C53.2812 41.0707 53.1676 41.4453 52.9547 41.7639C52.7418 42.0825 52.4392 42.3309 52.0852 42.4775C51.7312 42.6242 51.3416 42.6625 50.9658 42.5878C50.5899 42.513 50.2447 42.3285 49.9737 42.0575C49.7028 41.7866 49.5182 41.4413 49.4435 41.0655C49.3687 40.6897 49.4071 40.3001 49.5537 39.9461C49.7004 39.592 49.9487 39.2894 50.2673 39.0765C50.586 38.8636 50.9605 38.75 51.3437 38.75C51.8576 38.75 52.3504 38.9541 52.7138 39.3175C53.0771 39.6808 53.2812 40.1736 53.2812 40.6875Z" fill="white"/>
<path id="Vector_5" d="M57.1562 31.9688H45.5312C44.7605 31.9688 44.0213 32.2749 43.4762 32.82C42.9312 33.365 42.625 34.1042 42.625 34.875V46.5C42.625 47.2708 42.9312 48.01 43.4762 48.555C44.0213 49.1001 44.7605 49.4062 45.5312 49.4062H57.1562C57.927 49.4062 58.6663 49.1001 59.2113 48.555C59.7563 48.01 60.0625 47.2708 60.0625 46.5V44.5625C60.0625 44.3056 59.9604 44.0592 59.7788 43.8775C59.5971 43.6958 59.3507 43.5938 59.0938 43.5938C58.8368 43.5938 58.5904 43.6958 58.4087 43.8775C58.2271 44.0592 58.125 44.3056 58.125 44.5625V46.5C58.125 46.7569 58.0229 47.0033 57.8413 47.185C57.6596 47.3667 57.4132 47.4688 57.1562 47.4688H45.5312C45.2743 47.4688 45.0279 47.3667 44.8462 47.185C44.6646 47.0033 44.5625 46.7569 44.5625 46.5V34.875C44.5625 34.6181 44.6646 34.3717 44.8462 34.19C45.0279 34.0083 45.2743 33.9062 45.5312 33.9062H57.1562C57.4132 33.9062 57.6596 34.0083 57.8413 34.19C58.0229 34.3717 58.125 34.6181 58.125 34.875V40.6875C58.125 40.9444 58.2271 41.1908 58.4087 41.3725C58.5904 41.5542 58.8368 41.6562 59.0938 41.6562C59.3507 41.6562 59.5971 41.5542 59.7788 41.3725C59.9604 41.1908 60.0625 40.9444 60.0625 40.6875V34.875C60.0625 34.1042 59.7563 33.365 59.2113 32.82C58.6663 32.2749 57.927 31.9688 57.1562 31.9688Z" fill="white"/>
<path id="Vector_6" d="M23.7053 13.4172C23.8595 13.5127 24.0374 13.5631 24.2188 13.5625C24.3704 13.5616 24.5197 13.5251 24.6547 13.4559L30.4672 10.5497C30.6259 10.4684 30.759 10.3449 30.852 10.1928C30.945 10.0406 30.9942 9.86579 30.9942 9.6875C30.9942 9.5092 30.945 9.33437 30.852 9.18224C30.759 9.03012 30.6259 8.90661 30.4672 8.82531L24.6547 5.91906C24.5072 5.84475 24.3432 5.80937 24.1782 5.81628C24.0132 5.82319 23.8527 5.87216 23.712 5.95855C23.5712 6.04494 23.4549 6.16587 23.3741 6.30985C23.2932 6.45384 23.2505 6.61611 23.25 6.78125V12.5937C23.2497 12.7584 23.2913 12.9204 23.371 13.0645C23.4506 13.2085 23.5657 13.3299 23.7053 13.4172ZM25.1875 8.35062L27.8613 9.6875L25.1875 11.0244V8.35062Z" fill="white"/>
<path id="Vector_7" d="M26.1562 18.4063C27.8807 18.4063 29.5663 17.8949 31.0001 16.9369C32.4339 15.9789 33.5514 14.6172 34.2113 13.024C34.8712 11.4309 35.0439 9.67783 34.7075 7.98656C34.3711 6.29529 33.5407 4.74176 32.3213 3.52242C31.102 2.30308 29.5485 1.4727 27.8572 1.13628C26.1659 0.799867 24.4129 0.972528 22.8197 1.63243C21.2266 2.29233 19.8649 3.40983 18.9069 4.84363C17.9488 6.27742 17.4375 7.9631 17.4375 9.6875C17.4375 11.9999 18.3561 14.2175 19.9912 15.8526C21.6262 17.4877 23.8439 18.4063 26.1562 18.4063ZM26.1562 2.90625C27.4975 2.90625 28.8085 3.30397 29.9237 4.0491C31.0389 4.79423 31.9081 5.85332 32.4213 7.09243C32.9346 8.33154 33.0689 9.69503 32.8072 11.0105C32.5455 12.3259 31.8997 13.5342 30.9513 14.4826C30.0029 15.4309 28.7946 16.0768 27.4792 16.3385C26.1638 16.6001 24.8003 16.4658 23.5612 15.9526C22.3221 15.4393 21.263 14.5701 20.5178 13.455C19.7727 12.3398 19.375 11.0287 19.375 9.6875C19.375 7.889 20.0895 6.16417 21.3612 4.89244C22.6329 3.6207 24.3578 2.90625 26.1562 2.90625Z" fill="white"/>
<path id="Vector_8" d="M35.8438 22.2813C35.9941 22.2813 36.1425 22.2462 36.277 22.179C36.4115 22.1117 36.5285 22.0141 36.6188 21.8938L39.525 18.0188C39.6792 17.8132 39.7453 17.5548 39.709 17.3005C39.6727 17.0462 39.5368 16.8167 39.3313 16.6625C39.1257 16.5083 38.8673 16.4422 38.613 16.4785C38.3587 16.5148 38.1292 16.6507 37.975 16.8563L35.0688 20.7313C34.9146 20.9368 34.8484 21.1952 34.8847 21.4495C34.9211 21.7039 35.057 21.9333 35.2625 22.0875C35.4302 22.2133 35.6341 22.2813 35.8438 22.2813Z" fill="white"/>
<path id="Vector_9" d="M37.975 25.7688C38.0652 25.8891 38.1822 25.9867 38.3168 26.054C38.4513 26.1212 38.5996 26.1563 38.75 26.1563C38.9596 26.1563 39.1636 26.0883 39.3313 25.9625L43.2063 23.0563C43.4118 22.9021 43.5477 22.6726 43.584 22.4183C43.6203 22.1639 43.5542 21.9055 43.4 21.7C43.2458 21.4945 43.0164 21.3586 42.762 21.3222C42.5077 21.2859 42.2493 21.3521 42.0438 21.5063L38.1688 24.4125C37.9632 24.5667 37.8273 24.7962 37.791 25.0505C37.7547 25.3048 37.8208 25.5632 37.975 25.7688Z" fill="white"/>
<path id="Vector_10" d="M47.4688 27.9C47.4457 27.7715 47.397 27.6491 47.3255 27.54C47.254 27.4308 47.1612 27.3373 47.0526 27.2649C46.944 27.1925 46.822 27.1428 46.6937 27.1188C46.5655 27.0947 46.4337 27.0968 46.3063 27.125L41.4625 28.0937C41.3353 28.1064 41.2118 28.1441 41.0992 28.2045C40.9865 28.265 40.8868 28.347 40.8059 28.446C40.6424 28.6458 40.565 28.9024 40.5907 29.1594C40.6163 29.4163 40.743 29.6525 40.9429 29.816C41.1427 29.9795 41.3993 30.0569 41.6563 30.0312H41.85L46.6938 29.0625C46.8222 29.0395 46.9447 28.9907 47.0538 28.9192C47.1629 28.8477 47.2565 28.7549 47.3289 28.6463C47.4013 28.5377 47.451 28.4157 47.475 28.2874C47.499 28.1592 47.4969 28.0274 47.4688 27.9Z" fill="white"/>
<path id="Vector_11" d="M2.90625 28.0938H14.5312C14.7882 28.0938 15.0346 27.9917 15.2163 27.81C15.3979 27.6283 15.5 27.3819 15.5 27.125V11.625C15.5 11.3681 15.3979 11.1217 15.2163 10.94C15.0346 10.7583 14.7882 10.6562 14.5312 10.6562H2.90625C2.64932 10.6562 2.40292 10.7583 2.22124 10.94C2.03956 11.1217 1.9375 11.3681 1.9375 11.625V27.125C1.9375 27.3819 2.03956 27.6283 2.22124 27.81C2.40292 27.9917 2.64932 28.0938 2.90625 28.0938ZM3.875 12.5938H13.5625V26.1562H3.875V12.5938Z" fill="white"/>
<path id="Vector_12" d="M10.6562 14.5312H8.71875C8.46182 14.5312 8.21542 14.6333 8.03374 14.815C7.85206 14.9967 7.75 15.2431 7.75 15.5C7.75 15.7569 7.85206 16.0033 8.03374 16.185C8.21542 16.3667 8.46182 16.4688 8.71875 16.4688H10.6562C10.9132 16.4688 11.1596 16.3667 11.3413 16.185C11.5229 16.0033 11.625 15.7569 11.625 15.5C11.625 15.2431 11.5229 14.9967 11.3413 14.815C11.1596 14.6333 10.9132 14.5312 10.6562 14.5312Z" fill="white"/>
<path id="Vector_13" d="M10.6562 18.4062H6.78125C6.52432 18.4062 6.27792 18.5083 6.09624 18.69C5.91456 18.8717 5.8125 19.1181 5.8125 19.375C5.8125 19.6319 5.91456 19.8783 6.09624 20.06C6.27792 20.2417 6.52432 20.3438 6.78125 20.3438H10.6562C10.9132 20.3438 11.1596 20.2417 11.3413 20.06C11.5229 19.8783 11.625 19.6319 11.625 19.375C11.625 19.1181 11.5229 18.8717 11.3413 18.69C11.1596 18.5083 10.9132 18.4062 10.6562 18.4062Z" fill="white"/>
<path id="Vector_14" d="M10.6562 22.2812H6.78125C6.52432 22.2812 6.27792 22.3833 6.09624 22.565C5.91456 22.7467 5.8125 22.9931 5.8125 23.25C5.8125 23.5069 5.91456 23.7533 6.09624 23.935C6.27792 24.1167 6.52432 24.2188 6.78125 24.2188H10.6562C10.9132 24.2188 11.1596 24.1167 11.3413 23.935C11.5229 23.7533 11.625 23.5069 11.625 23.25C11.625 22.9931 11.5229 22.7467 11.3413 22.565C11.1596 22.3833 10.9132 22.2812 10.6562 22.2812Z" fill="white"/>
<path id="Vector_15" d="M34.9896 27.8031C34.926 27.6924 34.8412 27.5953 34.7401 27.5174C34.639 27.4395 34.5235 27.3823 34.4002 27.349C34.277 27.3157 34.1484 27.307 34.0218 27.3234C33.8952 27.3398 33.7731 27.381 33.6624 27.4446C33.5517 27.5082 33.4547 27.593 33.3768 27.6942C33.2988 27.7953 33.2416 27.9108 33.2083 28.034C33.175 28.1572 33.1664 28.2858 33.1828 28.4124C33.1992 28.539 33.2404 28.6611 33.304 28.7718L37.5762 36.1634L22.0762 41.9759C22.0762 41.9759 22.0762 41.9759 22.0084 41.9759H21.9309L19.4121 43.429L17.7362 44.3978C17.5155 44.5253 17.2719 44.6081 17.0192 44.6413C16.7665 44.6746 16.5098 44.6576 16.2637 44.5915C15.7692 44.4579 15.3478 44.134 15.0915 43.6906L13.154 40.3387C12.926 39.9002 12.8743 39.3911 13.0094 38.9157C13.1444 38.4402 13.4561 38.0344 13.8805 37.7812L17.2324 35.8437L19.6543 40.0384C19.7396 40.1862 19.8625 40.3089 20.0105 40.3939C20.1585 40.479 20.3264 40.5234 20.4971 40.5228C20.6675 40.5234 20.835 40.4792 20.9828 40.3944C21.1306 40.3097 21.2535 40.1874 21.339 40.0401C21.4244 39.8927 21.4695 39.7254 21.4697 39.555C21.4699 39.3846 21.4251 39.2172 21.3399 39.0696L18.8405 34.749L30.9984 24.7225L31.3955 25.4103C31.4592 25.5209 31.5439 25.618 31.6451 25.6959C31.7462 25.7738 31.8617 25.8311 31.9849 25.8644C32.1081 25.8976 32.2367 25.9063 32.3633 25.8899C32.4899 25.8735 32.612 25.8323 32.7227 25.7687C32.8334 25.7051 32.9305 25.6203 33.0084 25.5192C33.0863 25.4181 33.1435 25.3026 33.1768 25.1793C33.2101 25.0561 33.2188 24.9275 33.2024 24.8009C33.186 24.6743 33.1448 24.5522 33.0812 24.4415L32.1124 22.7656C32.0414 22.6442 31.9449 22.5397 31.8294 22.4594C31.714 22.3791 31.5825 22.3249 31.444 22.3006C31.3047 22.2743 31.1615 22.279 31.0242 22.3141C30.887 22.3492 30.7591 22.4141 30.6496 22.504L17.0871 33.6834L12.9602 36.0665C12.2196 36.4979 11.6429 37.1626 11.3204 37.9567C10.9979 38.7507 10.9477 39.6293 11.1777 40.4549L10.209 41.0071C9.70984 41.2938 9.30705 41.7222 9.05168 42.238C8.79632 42.7539 8.69988 43.3339 8.77459 43.9046C8.8493 44.4754 9.0918 45.011 9.47134 45.4438C9.85088 45.8765 10.3504 46.1868 10.9065 46.3353C11.153 46.4006 11.4071 46.4331 11.6621 46.4321C12.1717 46.43 12.6722 46.2966 13.1152 46.0446L14.084 45.4925C14.5493 45.9732 15.1346 46.321 15.7793 46.5C16.1103 46.5926 16.4527 46.6382 16.7965 46.6356C17.4774 46.6371 18.1464 46.4565 18.734 46.1124L19.5768 45.6281L21.5143 48.9896C21.8993 49.6554 22.5326 50.1413 23.2752 50.3411C24.0179 50.5408 24.8094 50.438 25.4765 50.0553C25.8074 49.8646 26.0975 49.6106 26.3302 49.3077C26.5629 49.0048 26.7336 48.6591 26.8325 48.2902C26.9315 47.9213 26.9568 47.5365 26.907 47.1579C26.8571 46.7792 26.7331 46.4141 26.5421 46.0834L24.779 43.0125L39.3102 37.5584C39.442 37.5089 39.5614 37.4312 39.6601 37.3308C39.7588 37.2304 39.8345 37.1097 39.8818 36.9771C39.9289 36.8461 39.9473 36.7065 39.9356 36.5677C39.9239 36.429 39.8824 36.2944 39.814 36.1731L34.9896 27.8031ZM12.1077 44.359C11.9974 44.4228 11.8756 44.4642 11.7493 44.4808C11.6229 44.4974 11.4945 44.489 11.3715 44.4559C11.1233 44.3914 10.9108 44.2312 10.7805 44.0103C10.7168 43.8999 10.6754 43.7781 10.6588 43.6518C10.6421 43.5255 10.6506 43.3971 10.6837 43.274C10.7167 43.1503 10.774 43.0344 10.8522 42.933C10.9303 42.8315 11.0278 42.7466 11.139 42.6831L11.9818 42.1987L12.9505 43.8746L12.1077 44.359ZM24.8565 47.0715C24.9203 47.1818 24.9616 47.3036 24.9783 47.43C24.9949 47.5563 24.9864 47.6847 24.9534 47.8078C24.8843 48.054 24.7206 48.263 24.498 48.389C24.2768 48.5161 24.0143 48.5508 23.7676 48.4855C23.5209 48.4202 23.3099 48.2602 23.1805 48.0403L21.243 44.6787L22.8512 43.7584H22.9287L24.8565 47.0715Z" fill="white"/>
</g>
</svg>
