<svg width="68" height="62" viewBox="0 0 68 62" fill="none" xmlns="http://www.w3.org/2000/svg">
<path id="Vector" d="M62 0H5.63621C2.52799 0 0 2.52883 0 5.63621V43.6819V50.7276C0 53.8417 2.53638 56.3638 5.63621 56.3638H26.7724V59.1827H21.1362C20.3581 59.1827 19.7267 59.8133 19.7267 60.5914C19.7267 61.3695 20.3573 62 21.1362 62H28.1811H39.4543H46.5C47.2781 62 47.9086 61.3695 47.9086 60.5914C47.9086 59.8133 47.2781 59.1827 46.5 59.1827H40.8629V56.3638H58.7727C59.5626 56.3638 60.1822 55.7299 60.1822 54.9552C60.1822 54.1804 59.5626 53.5457 58.7727 53.5457H39.4543H28.1819H5.63621C4.08588 53.5457 2.81811 52.2771 2.81811 50.7276V45.0914H64.8181V49.3181C64.8181 50.0929 65.452 50.7276 66.2267 50.7276C67.0015 50.7276 67.6362 50.0937 67.6362 49.3181V43.6819V5.63621C67.6362 2.52883 65.1082 0 62 0ZM2.81811 5.63621C2.81811 4.08168 4.08168 2.81811 5.63621 2.81811H62C63.5545 2.81811 64.8181 4.08168 64.8181 5.63621V42.2733H2.81811V5.63621ZM38.0448 59.1827H29.5905V56.3638H38.0448V59.1827ZM65.4662 53.5172C65.8888 54.1653 65.706 55.039 65.0436 55.4758C64.8189 55.6167 64.5515 55.688 64.2823 55.688C63.8036 55.688 63.3525 55.4473 63.0984 55.0398C63.0573 54.9744 63.0238 54.904 62.9936 54.8336C62.8804 54.5686 62.846 54.2718 62.9005 53.9834C62.9852 53.6312 63.1965 53.3059 63.5067 53.1097C63.5067 53.1097 63.5201 53.1097 63.5201 53.0946C64.0886 52.7282 64.8692 52.8523 65.3203 53.3377C65.3732 53.3931 65.4235 53.4518 65.4662 53.5172ZM35.2267 47.9095C36.0048 47.9095 36.6362 48.54 36.6362 49.3181C36.6362 50.0962 36.0057 50.7276 35.2267 50.7276H32.4086C31.6305 50.7276 31 50.097 31 49.3181C31 48.54 31.6305 47.9095 32.4086 47.9095H35.2267ZM8.45432 24.6595V16.9095C8.45432 16.1314 9.08485 15.5 9.86295 15.5C10.6411 15.5 11.2724 16.1314 11.2724 16.9095V24.6595C11.2724 25.8249 12.2308 26.7733 13.4097 26.7733C14.5886 26.7733 15.547 25.8249 15.547 24.6595V16.9095C15.547 16.1314 16.1783 15.5 16.9564 15.5C17.7345 15.5 18.3659 16.1314 18.3659 16.9095V24.6595C18.3659 27.3786 16.1431 29.5914 13.4097 29.5914C10.6771 29.5914 8.45432 27.3786 8.45432 24.6595ZM21.0507 27.548L23.5686 22.5457L21.0507 17.5434C20.7002 16.8474 20.9803 16.0006 21.6753 15.6509C22.3746 15.2996 23.2181 15.5805 23.5678 16.2756L25.1466 19.4115L26.7255 16.2756C27.0751 15.5805 27.9186 15.2996 28.6179 15.6509C29.313 16.0006 29.593 16.8483 29.2426 17.5434L26.7238 22.5457L29.2426 27.548C29.5922 28.2431 29.313 29.0908 28.6179 29.4404C27.922 29.7926 27.0751 29.51 26.7255 28.8158L25.1466 25.6799L23.5678 28.8158C23.3213 29.3071 22.8241 29.5905 22.3084 29.5905C22.0954 29.5905 21.8791 29.5419 21.6753 29.4396C20.9811 29.0908 20.7002 28.2439 21.0507 27.548ZM46.7364 16.9095V24.6595C46.7364 25.8249 47.6957 26.7733 48.8737 26.7733C50.0518 26.7733 51.011 25.8249 51.011 24.6595V16.9095C51.011 16.1314 51.6415 15.5 52.4204 15.5C53.1986 15.5 53.8291 16.1314 53.8291 16.9095V24.6595C53.8291 27.3786 51.6063 29.5914 48.8737 29.5914C46.1411 29.5914 43.9175 27.3786 43.9175 24.6595V16.9095C43.9175 16.1314 44.5489 15.5 45.327 15.5C46.1051 15.5 46.7364 16.1314 46.7364 16.9095ZM59.1819 16.9095V28.1819C59.1819 28.96 58.5514 29.5914 57.7724 29.5914C56.9943 29.5914 56.3638 28.96 56.3638 28.1819V16.9095C56.3638 16.1314 56.9943 15.5 57.7724 15.5C58.5514 15.5 59.1819 16.1314 59.1819 16.9095ZM33.1809 33.7351C32.4489 33.4727 32.0682 32.6652 32.3315 31.9324L39.4233 12.2048C39.6857 11.4737 40.4949 11.0905 41.226 11.3554C41.958 11.6187 42.3387 12.4253 42.0754 13.1581L34.9836 32.8866C34.7773 33.4609 34.2348 33.8198 33.658 33.8198C33.4995 33.8189 33.3385 33.7921 33.1809 33.7351ZM59.1819 7.04568C59.1819 7.82379 58.5514 8.45516 57.7724 8.45516H9.86295C9.08485 8.45516 8.45432 7.82379 8.45432 7.04568C8.45432 6.26758 9.08485 5.63621 9.86295 5.63621H57.7724C58.5514 5.63621 59.1819 6.26758 59.1819 7.04568ZM59.1819 38.0457C59.1819 38.8238 58.5514 39.4552 57.7724 39.4552H9.86295C9.08485 39.4552 8.45432 38.8246 8.45432 38.0457C8.45432 37.2676 9.08485 36.6362 9.86295 36.6362H57.7724C58.5514 36.6362 59.1819 37.2676 59.1819 38.0457Z" fill="white"/>
</svg>
